<svg width="16" height="17" viewBox="0 0 16 17" fill="none" xmlns="http://www.w3.org/2000/svg">
<path fill-rule="evenodd" clip-rule="evenodd" d="M7.99992 13.8334C10.9454 13.8334 13.3333 11.4456 13.3333 8.50004C13.3333 5.55452 10.9454 3.16671 7.99992 3.16671C5.0544 3.16671 2.66659 5.55452 2.66659 8.50004C2.66659 11.4456 5.0544 13.8334 7.99992 13.8334ZM7.99992 15.1667C11.6818 15.1667 14.6666 12.1819 14.6666 8.50004C14.6666 4.81814 11.6818 1.83337 7.99992 1.83337C4.31802 1.83337 1.33325 4.81814 1.33325 8.50004C1.33325 12.1819 4.31802 15.1667 7.99992 15.1667Z" fill="black" fill-opacity="0.2"/>
<path fill-rule="evenodd" clip-rule="evenodd" d="M7.99992 4.5C8.36811 4.5 8.66659 4.79848 8.66659 5.16667V8.22386L10.138 9.69526C10.3983 9.95561 10.3983 10.3777 10.138 10.6381C9.87764 10.8984 9.45553 10.8984 9.19518 10.6381L7.52851 8.9714C7.40349 8.84638 7.33325 8.67681 7.33325 8.5V5.16667C7.33325 4.79848 7.63173 4.5 7.99992 4.5Z" fill="black" fill-opacity="0.2"/>
</svg>
