<svg width="17" height="16" viewBox="0 0 17 16" fill="none" xmlns="http://www.w3.org/2000/svg">
<path fill-rule="evenodd" clip-rule="evenodd" d="M5.16666 10.6009V12.6634L8.54147 10.6692L8.89421 10.6634C10.2968 10.6405 11.5591 10.4992 12.5029 10.3556C13.0986 10.265 13.5125 9.84929 13.6024 9.3273C13.7271 8.60326 13.8333 7.68596 13.8333 6.66668C13.8333 5.6474 13.7271 4.73009 13.6024 4.00605C13.5125 3.48407 13.0986 3.06835 12.5029 2.97772C11.4706 2.82065 10.0589 2.66668 8.49999 2.66668C6.94111 2.66668 5.52938 2.82065 4.49708 2.97772C3.90142 3.06835 3.48753 3.48407 3.39762 4.00606C3.2729 4.73009 3.16666 5.6474 3.16666 6.66668C3.16666 7.68596 3.2729 8.60326 3.39762 9.3273C3.47569 9.78058 3.79235 10.1439 4.25405 10.2974L5.16666 10.6009ZM2.08363 3.77972C2.27709 2.65659 3.16981 1.83099 4.29651 1.65956C5.37607 1.4953 6.85705 1.33334 8.49999 1.33334C10.1429 1.33334 11.6239 1.4953 12.7035 1.65956C13.8302 1.83099 14.7229 2.65659 14.9164 3.77972C15.0512 4.56249 15.1667 5.55684 15.1667 6.66668C15.1667 7.77651 15.0512 8.77087 14.9164 9.55363C14.7229 10.6768 13.8302 11.5024 12.7035 11.6738C11.7159 11.8241 10.3923 11.9724 8.91605 11.9966L4.83915 14.4057C4.39474 14.6683 3.83333 14.3479 3.83333 13.8317V11.5626C2.93104 11.2626 2.2497 10.5177 2.08363 9.55363C1.9488 8.77087 1.83333 7.77651 1.83333 6.66668C1.83333 5.55684 1.9488 4.56249 2.08363 3.77972Z" fill="black" fill-opacity="0.2"/>
<path fill-rule="evenodd" clip-rule="evenodd" d="M5.16665 4.66667C4.79846 4.66667 4.49998 4.96515 4.49998 5.33334C4.49998 5.70153 4.79846 6.00001 5.16665 6.00001H11.8333C12.2015 6.00001 12.5 5.70153 12.5 5.33334C12.5 4.96515 12.2015 4.66667 11.8333 4.66667H5.16665ZM5.16665 7.33334C4.79846 7.33334 4.49998 7.63182 4.49998 8.00001C4.49998 8.3682 4.79846 8.66667 5.16665 8.66667H7.83332C8.20151 8.66667 8.49998 8.3682 8.49998 8.00001C8.49998 7.63182 8.20151 7.33334 7.83332 7.33334H5.16665Z" fill="black" fill-opacity="0.2"/>
</svg>
