<svg width="20" height="20" viewBox="0 0 20 20" fill="none" xmlns="http://www.w3.org/2000/svg">
<path fill-rule="evenodd" clip-rule="evenodd" d="M9.19082 12.5006C9.65073 12.4832 10.0376 12.842 10.055 13.3019C10.0941 14.3387 10.1491 15.0954 10.2032 15.638C10.2564 16.1723 10.579 16.4938 11.0286 16.5488C11.5588 16.6136 12.3068 16.6666 13.3332 16.6666C14.3596 16.6666 15.1075 16.6136 15.6377 16.5488C16.0871 16.4938 16.4099 16.1722 16.4631 15.6378C16.5634 14.6306 16.6665 12.8907 16.6665 9.99998C16.6665 7.1093 16.5634 5.36932 16.4631 4.36221C16.4099 3.82775 16.0871 3.50612 15.6377 3.45118C15.1075 3.38636 14.3596 3.33331 13.3332 3.33331C12.3068 3.33331 11.5588 3.38636 11.0286 3.45117C10.579 3.50614 10.2564 3.82763 10.2032 4.36196C10.1491 4.90452 10.0941 5.66126 10.055 6.69808C10.0376 7.15799 9.65073 7.51675 9.19082 7.49939C8.73091 7.48202 8.37216 7.09512 8.38952 6.63521C8.42969 5.57102 8.48666 4.7795 8.54471 4.19674C8.66676 2.9716 9.52093 1.9564 10.8264 1.79682C11.4341 1.72254 12.2505 1.66665 13.3332 1.66665C14.4158 1.66665 15.2323 1.72254 15.84 1.79683C17.1455 1.95643 17.9996 2.9721 18.1216 4.197C18.229 5.27555 18.3332 7.07371 18.3332 9.99998C18.3332 12.9263 18.229 14.7244 18.1216 15.803C17.9996 17.0279 17.1455 18.0435 15.84 18.2031C15.2323 18.2774 14.4158 18.3333 13.3332 18.3333C12.2505 18.3333 11.4341 18.2774 10.8264 18.2031C9.52093 18.0436 8.66676 17.0284 8.54471 15.8032C8.48666 15.2205 8.42969 14.4289 8.38952 13.3647C8.37216 12.9048 8.73091 12.5179 9.19082 12.5006Z" fill="white" fill-opacity="0.6"/>
<path fill-rule="evenodd" clip-rule="evenodd" d="M11.4942 7.67259C11.1688 7.34715 11.1688 6.81951 11.4942 6.49408C11.8197 6.16864 12.3473 6.16864 12.6728 6.49408L15.5894 9.41074C15.9149 9.73618 15.9149 10.2638 15.5894 10.5893L12.6728 13.5059C12.3473 13.8314 11.8197 13.8314 11.4942 13.5059C11.1688 13.1805 11.1688 12.6528 11.4942 12.3274L12.9883 10.8333L5.00016 10.8333C4.53993 10.8333 4.16683 10.4602 4.16683 10C4.16683 9.53976 4.53993 9.16667 5.00016 9.16667L12.9883 9.16667L11.4942 7.67259Z" fill="white" fill-opacity="0.6"/>
</svg>
