<svg width="48" height="48" viewBox="0 0 48 48" fill="none" xmlns="http://www.w3.org/2000/svg">
<path d="M41.9899 13.8C41.9566 13.4639 41.8387 13.1417 41.647 12.8636C41.4553 12.5855 41.1962 12.3607 40.8939 12.21L24.8939 4.21C24.616 4.07096 24.3096 3.99857 23.9989 3.99857C23.6882 3.99857 23.3817 4.07096 23.1039 4.21L7.10389 12.21C6.80243 12.3615 6.54411 12.5867 6.35287 12.8646C6.16162 13.1426 6.04365 13.4643 6.00989 13.8C5.98789 14.014 4.08788 35.334 23.1879 43.828C23.4431 43.9432 23.7199 44.0027 23.9999 44.0027C24.2799 44.0027 24.5567 43.9432 24.8119 43.828C43.9119 35.334 42.0119 14.016 41.9899 13.8ZM23.9999 39.794C10.4619 33.25 9.82189 19.284 9.93189 15.27L23.9999 8.236L38.0579 15.266C38.1319 19.244 37.4019 33.302 23.9999 39.794Z" fill="#1D7F1B"/>
<path d="M21.9999 25.172L17.4139 20.586L14.5859 23.414L21.9999 30.828L33.4139 19.414L30.5859 16.586L21.9999 25.172Z" fill="#1D7F1B"/>
</svg>
