<svg width="48" height="48" viewBox="0 0 48 48" fill="none" xmlns="http://www.w3.org/2000/svg">
<path d="M22.002 20H26.002V30H22.002V20ZM22 32H26V36H22V32Z" fill="#80561B"/>
<path d="M27.536 8.4C26.84 7.09 25.484 6.276 24 6.276C22.516 6.276 21.16 7.09 20.464 8.402L5.78802 36.128C5.46236 36.7369 5.30104 37.4201 5.31998 38.1103C5.33892 38.8005 5.53746 39.4739 5.89602 40.064C6.24942 40.6568 6.7513 41.1471 7.35212 41.4866C7.95294 41.8261 8.63191 42.0031 9.32202 42H38.678C40.094 42 41.376 41.276 42.106 40.064C42.464 39.4737 42.6622 38.8004 42.6812 38.1103C42.7001 37.4202 42.5391 36.737 42.214 36.128L27.536 8.4ZM9.32202 38L24 10.274L38.688 38H9.32202Z" fill="#80561B"/>
</svg>
