<svg width="100" height="100" viewBox="0 0 100 100" fill="none" xmlns="http://www.w3.org/2000/svg">
<path d="M10.3047 82.1434C3.43489 82.1434 0 79.276 0 73.5412C0 68.5233 3.01673 62.2808 9.05018 54.8136C15.4421 46.9881 22.6703 42.0896 30.7348 40.1183C31.3919 39.9988 32.0191 39.9092 32.6165 39.8495C33.2139 39.73 33.7814 39.6703 34.319 39.6703C37.6643 39.6703 39.3369 40.8053 39.3369 43.0753C39.3369 44.509 39.0382 45.2258 38.4409 45.2258L38.0824 44.6882C38.0227 44.5687 37.963 44.4791 37.9032 44.4194C37.8435 44.2999 37.7539 44.1804 37.6344 44.0609L37.0072 43.1649C35.9916 41.7909 34.6774 41.1039 33.0645 41.1039C26.9713 41.1039 19.5639 46.0323 10.8423 55.8889C6.1828 61.1458 3.85305 66.7013 3.85305 72.5556C3.85305 78.589 6.7503 81.3071 12.5448 80.7097C17.4432 80.172 23.2378 77.8124 29.9283 73.6308C36.6189 69.4492 44.325 63.5651 53.0466 55.9785L60.1254 49.7957C54.9881 50.1541 47.2521 50.9606 36.9176 52.2151C35.9618 52.2151 35.4839 51.6774 35.4839 50.6022C35.4839 48.81 36.2306 47.914 37.724 47.914C41.0096 46.9582 43.6977 46.4803 45.7885 46.4803H45.8781C45.8781 46.5998 45.5496 46.8387 44.8925 47.1971C44.0562 47.675 43.7575 47.914 43.9964 47.914C46.5651 47.914 49.2832 47.914 52.1505 47.914C55.0777 47.8542 58.184 47.7945 61.4695 47.7348C61.589 47.675 61.9474 47.6452 62.5448 47.6452L76.8817 35.1004C79.5699 32.7109 81.8399 30.6499 83.6918 28.9176C85.6033 27.1254 87.1266 25.632 88.2616 24.4373C88.7395 23.9594 89.098 23.7204 89.3369 23.7204C89.5161 23.7204 89.6057 23.8399 89.6057 24.0789C89.6057 24.4373 89.4265 24.7957 89.0681 25.1541C87.9331 26.2891 86.6189 27.6332 85.1254 29.1864C83.6918 30.6798 82.049 32.3524 80.1971 34.2043C78.3453 36.0562 76.3441 38.0872 74.1935 40.2975C72.043 42.5078 69.7133 44.8973 67.2043 47.466H68.8172C69.1159 47.466 69.4146 47.466 69.7133 47.466C70.0717 47.466 70.46 47.4361 70.8781 47.3763H74.552C76.2843 44.0311 78.2855 40.865 80.5556 37.8781L88.7993 27.0358C90.1732 25.2437 91.6069 23.601 93.1004 22.1075C94.6535 20.6141 96.2067 19.2103 97.7599 17.8961C98.3572 17.2987 98.9546 17 99.552 17C99.8506 17 100 17.0896 100 17.2688C100 17.5078 99.7909 17.8065 99.3728 18.1649C97.1027 20.0765 94.5639 22.7945 91.7563 26.319C88.9486 29.7838 85.8722 34.1147 82.5269 39.3118C81.5711 40.8053 80.7049 42.2091 79.9283 43.5233C79.2115 44.8375 78.5842 46.092 78.0466 47.2867C78.4648 47.227 78.853 47.1971 79.2115 47.1971C79.6296 47.1971 79.9881 47.1971 80.2867 47.1971H82.0789C83.3931 47.1971 84.0502 47.4062 84.0502 47.8244C84.0502 48.1828 83.5125 48.4217 82.4373 48.5412C82.3178 48.5412 82.1685 48.5412 81.9892 48.5412C81.8698 48.4815 81.7503 48.4516 81.6308 48.4516C80.4361 48.4516 78.8829 48.8996 76.9713 49.7957C73.9845 56.6057 72.491 62.0717 72.491 66.1936C72.491 67.5078 72.6105 68.4038 72.8495 68.8817C73.0287 69.1207 73.2975 69.2401 73.6559 69.2401C74.1935 69.2401 75.2389 68.7324 76.7921 67.7168C78.7037 66.3429 79.779 65.626 80.0179 65.5663C80.8542 65.0884 81.7802 64.5806 82.7957 64.043C83.8112 63.5054 84.9462 62.9677 86.2007 62.4301C86.5591 62.3106 86.7384 62.4002 86.7384 62.6989V62.8781C86.7384 63.0573 86.4994 63.2366 86.0215 63.4158C84.3489 64.0131 82.1087 65.2676 79.3011 67.1792C76.135 69.4492 73.8053 71.54 72.3118 73.4516C72.0729 73.81 71.6249 73.9892 70.9677 73.9892C70.1912 73.9892 69.4146 73.6906 68.638 73.0932C67.8614 72.4958 67.4432 71.8387 67.3835 71.1219C67.3835 70.8232 67.3536 70.5544 67.2939 70.3154C67.2939 70.0765 67.2939 69.8375 67.2939 69.5986C67.2939 64.5209 69.4146 57.681 73.6559 49.0789C71.9833 49.1386 70.2808 49.3477 68.5484 49.7061C66.816 50.0048 65.0239 50.3931 63.172 50.871L55.0179 58.2186C51.6129 61.2652 48.178 64.0729 44.7133 66.6416C41.3082 69.2103 37.8435 71.54 34.319 73.6308C24.8805 79.3059 16.8757 82.1434 10.3047 82.1434Z" fill="white"/>
</svg>
